<svg width="30" height="30" viewBox="0 0 30 30" fill="#ffffff" xmlns="http://www.w3.org/2000/svg">
<g clip-path="url(#clip0)">
<path d="M25.9756 0H3.44809C1.54681 0 0 1.54681 0 3.44809V8.04555H2.29873V3.44809C2.29873 2.81433 2.81433 2.29873 3.44809 2.29873H25.9756C26.6094 2.29873 27.125 2.81433 27.125 3.44809V25.9756C27.125 26.6094 26.6094 27.125 25.9756 27.125H3.44809C2.81433 27.125 2.29873 26.6094 2.29873 25.9756V21.3782H0V25.9756C0 27.8769 1.54681 29.4237 3.44809 29.4237H25.9756C27.8769 29.4237 29.4237 27.8769 29.4237 25.9756V3.44809C29.4237 1.54681 27.8769 0 25.9756 0Z"/>
<path d="M13.7924 7.56949L12.1669 9.19492L16.5345 13.5625H0V15.8612H16.5345L12.1669 20.2288L13.7924 21.8542L20.9348 14.7119L13.7924 7.56949Z"/>
</g>
<defs>
<clipPath id="clip0">
<rect width="29.4237" height="29.4237"/>
</clipPath>
</defs>
</svg>